HIERARCHY
ROOT Hips
{
	OFFSET -3.958830 18.904000 13.208200
	CHANNELS 6 Xposition Yposition Zposition Zrotation Yrotation Xrotation 
	JOINT LHipJoint
	{
		OFFSET 0.000000 0.000000 0.000000
		CHANNELS 3 Zrotation Yrotation Xrotation
		JOINT LeftUpLeg
		{
			OFFSET 1.800000 -1.400000 0.085000
			CHANNELS 3 Zrotation Yrotation Xrotation
			JOINT LeftLeg
			{
				OFFSET 2.215000 -6.000000 0.000000
				CHANNELS 3 Zrotation Yrotation Xrotation
				JOINT LeftFoot
				{
					OFFSET 2.500000 -6.900000 0.000000
					CHANNELS 3 Zrotation Yrotation Xrotation
					JOINT LeftToeBase
					{
						OFFSET 0.200000 -0.500000 1.950000
						CHANNELS 3 Zrotation Yrotation Xrotation
						End Site
						{
							OFFSET 0.000000 0.000000 0.000000
						}
					}
				}
			}
		}
	}
	JOINT RHipJoint
	{
		OFFSET 0.000000 0.000000 0.000000
		CHANNELS 3 Zrotation Yrotation Xrotation
		JOINT RightUpLeg
		{
			OFFSET -1.800000 -1.400000 0.085000
			CHANNELS 3 Zrotation Yrotation Xrotation
			JOINT RightLeg
			{
				OFFSET -2.215000 -6.000000 0.000000
				CHANNELS 3 Zrotation Yrotation Xrotation
				JOINT RightFoot
				{
					OFFSET -2.500000 -6.900000 0.000000
					CHANNELS 3 Zrotation Yrotation Xrotation
					JOINT RightToeBase
					{
						OFFSET -0.200000 -0.500000 1.950000
						CHANNELS 3 Zrotation Yrotation Xrotation
						End Site
						{
							OFFSET 0.000000 0.000000 0.000000
						}
					}
				}
			}
		}
	}
	JOINT LowerBack
	{
		OFFSET 0.000000 0.000000 0.000000
		CHANNELS 3 Zrotation Yrotation Xrotation
		JOINT Spine
		{
			OFFSET -0.087000 1.940000 -0.288900
			CHANNELS 3 Zrotation Yrotation Xrotation
			JOINT Spine1
			{
				OFFSET 0.000000 1.950000 0.060000
				CHANNELS 3 Zrotation Yrotation Xrotation
				JOINT Neck
				{
					OFFSET 0.000000 0.000000 0.000000
					CHANNELS 3 Zrotation Yrotation Xrotation
					JOINT Neck1
					{
						OFFSET 0.000000 1.600000 0.340000
						CHANNELS 3 Zrotation Yrotation Xrotation
						JOINT Head
						{
							OFFSET 0.000000 1.667000 -0.240000
							CHANNELS 3 Zrotation Yrotation Xrotation
							End Site
							{
								OFFSET 0.000000 0.000000 0.000000
							}
						}
					}
				}
				JOINT LeftShoulder
				{
					OFFSET 0.000000 0.000000 0.000000
					CHANNELS 3 Zrotation Yrotation Xrotation
					JOINT LeftArm
					{
						OFFSET 2.700000 1.550000 -0.730000
						CHANNELS 3 Zrotation Yrotation Xrotation
						JOINT LeftForeArm
						{
							OFFSET 5.450000 0.000000 0.000000
							CHANNELS 3 Zrotation Yrotation Xrotation
							JOINT LeftHand
							{
								OFFSET 3.450000 0.000000 0.000000
								CHANNELS 3 Zrotation Yrotation Xrotation
								JOINT LeftHandIndex1
								{
									OFFSET 0.750000 0.000000 0.000000
									CHANNELS 3 Zrotation Yrotation Xrotation
									End Site
									{
										OFFSET 0.000000 0.000000 0.000000
									}
								}
							}
						}
					}
				}
				JOINT RightShoulder
				{
					OFFSET 0.000000 0.000000 0.000000
					CHANNELS 3 Zrotation Yrotation Xrotation
					JOINT RightArm
					{
						OFFSET -2.700000 1.550000 -0.730000
						CHANNELS 3 Zrotation Yrotation Xrotation
						JOINT RightForeArm
						{
							OFFSET -5.450000 0.000000 0.000000
							CHANNELS 3 Zrotation Yrotation Xrotation
							JOINT RightHand
							{
								OFFSET -3.450000 0.000000 0.000000
								CHANNELS 3 Zrotation Yrotation Xrotation
								JOINT RightHandIndex1
								{
									OFFSET -0.750000 0.000000 0.000000
									CHANNELS 3 Zrotation Yrotation Xrotation
									End Site
									{
										OFFSET 0.000000 0.000000 0.000000
									}
								}
							}
						}
					}
				}
			}
		}
	}
}
MOTION
Frames: 9
Frame Time: 0.016667
-1.656520 16.363360 -2.387940 -7.437341 -5.857148 -6.282325 -15.356571 11.544217 5.585587 9.284198 -6.815183 -36.156861 -25.167659 25.611926 50.264022 1.227691 12.818659 0.159239 0.279900 0.037800 0.411890 18.234702 -10.722384 1.850874 -4.429104 4.634845 -17.238757 -10.260056 -1.970324 42.627292 -0.683379 -5.723525 2.342333 0.056270 0.079050 0.159780 -3.223487 -0.253223 -8.569521 15.076062 5.567455 31.443815 4.729138 9.557439 8.097334 3.423436 9.224224 -11.178811 16.652025 -11.915796 33.921993 -5.479470 -1.545600 -16.413600 -11.478109 -8.548178 3.385038 -19.351039 3.726727 -8.490479 18.495192 -70.874388 -13.229661 -3.474109 2.987971 0.637360 0.050460 0.088160 -0.025200 4.112540 8.021499 7.061799 36.142832 6.078450 -15.244545 -85.190136 71.357933 -61.716746 1.037615 1.711617 -0.263620 0.253930 0.079100 -0.313050 
-1.658980 16.208780 -2.371610 -7.252913 -6.247967 -5.559764 -15.423248 10.868136 6.256149 15.665325 -5.456927 -39.490087 -34.711869 31.546449 48.698025 1.607169 14.001058 -0.128622 0.306300 0.074600 0.414720 18.315250 -10.298453 1.801055 -3.897112 5.668874 -18.918985 -11.906337 -1.302821 46.333280 -0.798849 -6.285148 2.157911 0.090420 0.094330 0.151930 -3.295274 -0.020827 -8.906038 16.616730 5.271315 30.598426 4.839842 9.820778 6.955091 3.392505 8.855344 -10.659383 15.833639 -12.367994 33.650310 -6.096210 -2.108750 -14.531970 -12.700194 -8.417171 2.959347 -19.460625 1.401707 -7.519399 18.459794 -70.527639 -12.710616 -3.499350 2.997449 0.591050 0.074450 0.064000 -0.001190 5.271198 8.333278 6.632302 35.956620 5.326881 -16.829694 -73.589261 71.092072 -50.947624 1.062793 0.779512 -0.257700 0.255470 0.054810 -0.299110 
-1.644730 16.096070 -2.342880 -6.683875 -6.292672 -5.855070 -15.497289 10.468559 6.810647 21.706304 -3.326439 -40.536168 -45.011854 36.199318 44.607119 1.833041 14.304710 -0.174107 0.344780 0.127630 0.421040 18.357539 -9.974414 1.687925 -3.718299 6.166760 -18.997076 -13.808746 -0.486756 48.930653 -0.930010 -6.715312 2.017787 0.108440 0.069920 0.147120 -3.299963 -0.080282 -9.180985 18.166745 4.474322 30.902320 4.819837 9.858081 6.113554 3.236984 7.876065 -10.227415 13.666419 -12.404440 34.889772 -5.543760 -2.945730 -14.777340 -14.282884 -8.493800 2.728200 -21.094020 -0.338848 -7.434921 20.081691 -71.342726 -14.029772 -3.455282 2.968057 0.587220 0.045820 0.082550 0.013800 7.078748 9.218887 6.413764 35.122964 4.471763 -17.693003 -62.458954 69.906052 -41.685902 1.217018 0.060907 -0.228210 0.248810 0.029860 -0.282170 
-1.605060 16.022170 -2.318090 -5.871399 -6.138822 -6.683518 -15.550275 10.313111 7.189144 26.629621 -1.266442 -40.134073 -54.839088 39.044445 39.511244 1.884537 14.122295 -0.110067 0.313160 0.060820 0.403040 18.377835 -9.769217 1.577605 -4.203466 6.432360 -18.768689 -15.403558 0.112344 51.026183 -1.015032 -7.088188 1.879595 0.071080 0.054540 0.142240 -3.293309 -0.300739 -9.399879 19.762920 2.945139 31.893756 4.196972 9.343036 5.501601 3.173634 5.985271 -10.371452 10.025363 -11.206190 37.544732 -5.060140 -3.378030 -14.550660 -15.319510 -8.702918 2.895714 -25.385491 -0.826786 -8.524732 26.827887 -73.380695 -19.692257 -3.384741 2.816366 0.626170 0.012010 0.072450 -0.020540 8.205023 10.901301 6.733910 35.021387 4.552631 -17.858416 -52.945791 66.346627 -33.199337 1.386166 -0.440798 -0.240420 0.232090 0.072260 -0.298750 
-1.537260 15.977740 -2.283370 -4.339997 -3.937921 -6.990984 -15.612201 10.286433 7.464796 29.648140 -0.636711 -40.114283 -63.532795 40.122141 34.708021 1.930824 13.804567 0.033008 0.317060 0.064200 0.421390 18.349130 -9.740307 1.334255 -6.609428 5.746852 -18.990579 -15.824042 -0.308108 52.460428 -1.058800 -7.341489 1.810327 0.068020 0.050020 0.113000 -3.184992 -0.568783 -9.504106 19.837162 2.014895 31.032939 5.069788 8.476310 5.030284 3.313725 4.896549 -10.589683 7.929803 -11.062593 39.864580 -5.945330 -3.597740 -13.686840 -16.224697 -8.417213 2.894208 -32.299170 -3.709469 -8.952429 33.846532 -75.352752 -25.967985 -3.303409 2.564083 0.631590 -0.000220 0.080030 -0.009520 8.956743 11.493860 7.050146 35.630978 3.883312 -17.382667 -46.454528 61.112671 -26.433909 1.521723 -0.739384 -0.249140 0.263850 0.051780 -0.297880 
-1.464080 15.952670 -2.258450 -3.072001 -2.217232 -6.321292 -15.629786 10.154763 7.666165 32.561595 0.258203 -40.000436 -71.492954 39.884040 29.471403 1.910839 13.396691 0.144253 0.342740 0.099960 0.433790 18.373599 -9.739960 1.190660 -8.610149 5.188310 -20.233920 -16.415809 -0.597841 53.237905 -1.080245 -7.499248 1.749617 0.080630 0.011550 0.109020 -3.214167 -0.531155 -9.590196 20.001262 1.386283 29.071743 5.735918 7.557736 4.727896 3.411050 4.258464 -10.753669 6.880233 -10.774905 41.572133 -6.542910 -3.188370 -13.447800 -16.776281 -7.756508 2.981934 -40.097184 -6.725328 -8.851801 42.194788 -77.127597 -33.474602 -3.213210 2.287849 0.634900 -0.013350 0.092090 -0.016600 9.419751 11.214005 7.024345 37.846435 4.275419 -16.307035 -42.528466 55.026035 -21.487769 1.619200 -0.934755 -0.229070 0.241370 0.042290 -0.308130 
-1.405760 15.937320 -2.223100 -1.998195 0.213909 -4.716067 -15.642892 9.924923 7.836332 35.382383 0.858073 -39.622831 -77.990647 37.889511 24.025048 1.870430 13.043043 0.254900 0.339690 0.080630 0.451860 18.416304 -9.721398 1.089754 -10.726546 4.415435 -22.251484 -15.884616 -1.776197 54.443434 -1.092391 -7.717292 1.651644 0.070100 0.010320 0.134620 -3.267429 -0.368164 -9.662242 19.246520 0.990223 25.831107 7.076854 6.416619 3.906912 3.132917 4.353816 -10.632917 7.129167 -11.344027 41.963126 -7.672510 -2.717010 -12.182150 -16.925015 -6.061264 3.189911 -48.503393 -8.980155 -7.750106 50.657512 -80.900682 -42.917231 -3.164681 1.895786 0.630920 0.007430 0.092060 -0.026520 10.246760 9.145477 6.238808 40.301844 4.408308 -14.695899 -36.613980 50.506669 -16.420559 1.698898 -1.066925 -0.223260 0.219290 0.047970 -0.321100 
-1.345470 15.956830 -2.178370 -1.140563 2.388602 -3.355387 -15.636402 9.709751 7.973021 37.842546 0.783996 -37.953345 -81.416634 34.352866 19.409519 1.781868 12.711612 0.331416 0.321740 0.038490 0.483210 18.459389 -9.798373 0.951105 -12.129707 3.208174 -23.222520 -15.974373 -2.486413 54.160419 -1.068999 -7.721859 1.630162 0.048520 -0.010390 0.146330 -3.341953 -0.103825 -9.665197 18.391829 0.608842 22.769568 7.800965 5.342599 3.150163 3.028676 5.335551 -10.912215 9.305378 -12.533322 42.545327 -8.847930 -1.665550 -11.042150 -17.200492 -5.144509 3.700562 -56.003847 -10.183303 -6.600599 65.206821 -84.652493 -58.494461 -3.112160 0.804169 0.650810 0.021080 0.095660 -0.057800 10.821126 7.108388 5.665530 44.698130 3.961249 -13.508971 -32.669702 45.236616 -12.849789 1.772582 -1.128954 -0.234960 0.196490 0.062110 -0.359520 
-1.247750 15.981650 -2.141480 -0.805247 4.108161 -1.122362 -15.534943 9.352943 8.089507 39.436166 0.495422 -36.773351 -82.269735 30.097652 15.418508 1.766224 12.372738 0.457366 0.257740 -0.045790 0.434170 18.603383 -9.900810 0.858966 -13.298151 2.092396 -24.731495 -15.803950 -3.209597 52.648380 -0.957681 -7.580277 1.672243 -0.007630 0.033250 0.171670 -3.699271 0.468547 -9.609368 19.595543 -0.003668 18.899382 7.104895 4.377391 1.616586 2.670599 5.915366 -10.359066 10.476427 -13.153317 40.705848 -9.614990 -0.925810 -6.870630 -17.024898 -2.687493 3.657957 -62.263732 -10.088295 1.443509 90.249350 -83.525713 -85.076587 -3.725376 -1.199113 0.571640 0.086130 0.035700 -0.054020 11.189058 3.396280 4.527794 48.353560 3.078606 -11.676052 -27.343119 40.537089 -9.113166 1.875722 -1.234464 -0.221430 0.128110 0.072460 -0.343590 
